
      <svg data-logo="logo" xmlns="http://www.w3.org/2000/svg" viewBox="0 0 224 42">
        <g id="logogram" transform="translate(0, 1) rotate(0)"><path d="M33.724 36.5809C37.7426 32.5622 40.0003 27.1118 40.0003 21.4286C40.0003 15.7454 37.7426 10.2949 33.724 6.27629C29.7054 2.25765 24.2549 1.02188e-06 18.5717 0C12.8885 -1.02188e-06 7.43807 2.25764 3.41943 6.27628L10.4905 13.3473C11.6063 14.4631 13.4081 14.4074 14.8276 13.7181C15.9836 13.1568 17.2622 12.8571 18.5717 12.8571C20.845 12.8571 23.0252 13.7602 24.6326 15.3677C26.2401 16.9751 27.1431 19.1553 27.1431 21.4286C27.1431 22.7381 26.8435 24.0167 26.2822 25.1727C25.5929 26.5922 25.5372 28.394 26.6529 29.5098L33.724 36.5809Z" fill="#297AFF"/><path d="M30 40H19.5098C17.9943 40 16.5408 39.398 15.4692 38.3263L1.67368 24.5308C0.60204 23.4592 0 22.0057 0 20.4902V10L30 40Z" fill="#34C2FF"/><path d="M10.7143 39.9999H4.28571C1.91878 39.9999 0 38.0812 0 35.7142V29.2856L10.7143 39.9999Z" fill="#34C2FF"/></g>
        <g id="logotype" transform="translate(46, 1)"><path fill="#111111" d="M17.25 33L17.25 33L10.67 33L10.67 28.51L17.01 28.51Q19.47 28.51 21.13 27.63Q22.80 26.76 23.64 24.93Q24.47 23.10 24.47 20.25L24.47 20.25Q24.47 17.41 23.63 15.59Q22.78 13.77 21.13 12.90Q19.48 12.03 17.04 12.03L17.04 12.03L10.55 12.03L10.55 7.54L17.35 7.54Q21.18 7.54 23.94 9.07Q26.70 10.60 28.18 13.44Q29.67 16.29 29.67 20.25L29.67 20.25Q29.67 24.23 28.18 27.09Q26.70 29.94 23.91 31.47Q21.12 33 17.25 33ZM8.31 7.54L13.52 7.54L13.52 33L8.31 33L8.31 7.54ZM39.73 33.38L39.73 33.38Q36.86 33.38 34.76 32.14Q32.66 30.90 31.52 28.68Q30.39 26.47 30.39 23.53L30.39 23.53Q30.39 20.56 31.52 18.35Q32.66 16.13 34.76 14.89Q36.86 13.65 39.73 13.65L39.73 13.65Q42.62 13.65 44.71 14.89Q46.81 16.13 47.94 18.35Q49.08 20.56 49.08 23.53L49.08 23.53Q49.08 26.47 47.94 28.68Q46.81 30.90 44.71 32.14Q42.62 33.38 39.73 33.38ZM39.73 29.34L39.73 29.34Q41.10 29.34 42.02 28.58Q42.95 27.82 43.41 26.50Q43.87 25.17 43.87 23.52L43.87 23.52Q43.87 21.82 43.41 20.51Q42.95 19.19 42.02 18.44Q41.10 17.69 39.73 17.69L39.73 17.69Q38.37 17.69 37.45 18.44Q36.54 19.19 36.08 20.51Q35.61 21.82 35.61 23.52L35.61 23.52Q35.61 25.17 36.08 26.50Q36.54 27.82 37.45 28.58Q38.37 29.34 39.73 29.34ZM58.92 33.38L58.92 33.38Q56.03 33.38 53.94 32.14Q51.85 30.90 50.71 28.68Q49.58 26.47 49.58 23.53L49.58 23.53Q49.58 20.56 50.71 18.35Q51.85 16.13 53.94 14.89Q56.03 13.65 58.92 13.65L58.92 13.65Q60.62 13.65 62.05 14.10Q63.49 14.54 64.60 15.36Q65.71 16.18 66.43 17.36Q67.14 18.54 67.42 20.01L67.42 20.01L62.65 20.90Q62.49 20.15 62.17 19.56Q61.85 18.97 61.38 18.55Q60.92 18.13 60.32 17.91Q59.71 17.69 58.97 17.69L58.97 17.69Q57.61 17.69 56.68 18.42Q55.74 19.16 55.27 20.47Q54.80 21.79 54.80 23.52L54.80 23.52Q54.80 25.22 55.27 26.53Q55.74 27.84 56.68 28.59Q57.61 29.34 58.97 29.34L58.97 29.34Q59.71 29.34 60.32 29.11Q60.94 28.88 61.42 28.45Q61.90 28.01 62.22 27.39Q62.55 26.78 62.68 26.01L62.68 26.01L67.45 26.88Q67.18 28.40 66.46 29.59Q65.74 30.78 64.63 31.63Q63.52 32.49 62.08 32.93Q60.63 33.38 58.92 33.38ZM78.15 33.38L78.15 33.38Q75.09 33.38 72.82 32.44Q70.56 31.50 69.29 29.65Q68.03 27.80 67.96 25.10L67.96 25.10L73.04 25.10Q73.14 26.39 73.81 27.25Q74.47 28.11 75.58 28.54Q76.69 28.97 78.10 28.97L78.10 28.97Q79.50 28.97 80.53 28.57Q81.57 28.16 82.15 27.43Q82.73 26.69 82.73 25.72L82.73 25.72Q82.73 24.85 82.21 24.26Q81.68 23.67 80.71 23.24Q79.74 22.81 78.34 22.49L78.34 22.49L75.53 21.79Q72.30 21.00 70.47 19.32Q68.65 17.64 68.65 14.87L68.65 14.87Q68.65 12.56 69.88 10.83Q71.12 9.11 73.29 8.15Q75.45 7.19 78.22 7.19L78.22 7.19Q81.04 7.19 83.14 8.16Q85.24 9.13 86.42 10.84Q87.60 12.56 87.63 14.80L87.63 14.80L82.59 14.80Q82.45 13.26 81.28 12.42Q80.11 11.59 78.16 11.59L78.16 11.59Q76.85 11.59 75.91 11.96Q74.97 12.34 74.47 13.00Q73.98 13.67 73.98 14.53L73.98 14.53Q73.98 15.47 74.55 16.09Q75.12 16.71 76.05 17.10Q76.99 17.48 78.06 17.74L78.06 17.74L80.37 18.30Q81.98 18.66 83.36 19.28Q84.74 19.89 85.79 20.79Q86.83 21.69 87.40 22.92Q87.97 24.15 87.97 25.75L87.97 25.75Q87.97 28.06 86.81 29.78Q85.65 31.50 83.45 32.44Q81.24 33.38 78.15 33.38ZM94.47 40.14L89.34 40.14L89.34 13.89L94.38 13.89L94.38 17.11L94.62 17.11Q94.98 16.35 95.64 15.55Q96.29 14.75 97.37 14.20Q98.45 13.65 100.07 13.65L100.07 13.65Q102.19 13.65 103.95 14.75Q105.71 15.84 106.76 18.03Q107.81 20.22 107.81 23.48L107.81 23.48Q107.81 26.66 106.79 28.86Q105.76 31.05 104.00 32.19Q102.24 33.32 100.04 33.32L100.04 33.32Q98.48 33.32 97.41 32.79Q96.33 32.27 95.65 31.49Q94.98 30.71 94.62 29.94L94.62 29.94L94.47 29.94L94.47 40.14ZM98.46 29.21L98.46 29.21Q99.80 29.21 100.71 28.47Q101.63 27.74 102.10 26.44Q102.57 25.14 102.57 23.46L102.57 23.46Q102.57 21.79 102.10 20.51Q101.63 19.23 100.72 18.49Q99.82 17.76 98.46 17.76L98.46 17.76Q97.15 17.76 96.23 18.47Q95.30 19.17 94.82 20.45Q94.35 21.72 94.35 23.46L94.35 23.46Q94.35 25.19 94.83 26.48Q95.32 27.77 96.24 28.49Q97.17 29.21 98.46 29.21ZM114.25 21.94L114.25 21.94L114.25 33L109.13 33L109.13 7.54L114.15 7.54L114.15 18.66L113.74 18.66Q114.49 16.27 116.02 14.96Q117.55 13.65 119.98 13.65L119.98 13.65Q121.96 13.65 123.44 14.52Q124.92 15.38 125.73 17.00Q126.54 18.61 126.54 20.85L126.54 20.85L126.54 33L121.41 33L121.41 21.74Q121.41 19.96 120.50 18.95Q119.59 17.94 117.96 17.94L117.96 17.94Q116.89 17.94 116.04 18.41Q115.19 18.88 114.72 19.77Q114.25 20.66 114.25 21.94ZM137.27 33.38L137.27 33.38Q134.35 33.38 132.23 32.18Q130.11 30.98 128.97 28.78Q127.84 26.57 127.84 23.55L127.84 23.55Q127.84 20.59 128.97 18.37Q130.09 16.15 132.16 14.90Q134.23 13.65 137.02 13.65L137.02 13.65Q138.90 13.65 140.52 14.25Q142.14 14.85 143.37 16.06Q144.60 17.26 145.30 19.07Q145.99 20.88 145.99 23.34L145.99 23.34L145.99 24.78L129.94 24.78L129.94 21.57L143.48 21.57L141.08 22.42Q141.08 20.93 140.63 19.83Q140.18 18.73 139.28 18.12Q138.38 17.52 137.05 17.52L137.05 17.52Q135.73 17.52 134.80 18.13Q133.87 18.75 133.39 19.80Q132.91 20.85 132.91 22.20L132.91 22.20L132.91 24.47Q132.91 26.13 133.47 27.26Q134.02 28.39 135.02 28.95Q136.02 29.51 137.36 29.51L137.36 29.51Q138.26 29.51 139.00 29.26Q139.73 29.00 140.25 28.50Q140.78 27.99 141.05 27.26L141.05 27.26L145.70 28.13Q145.24 29.70 144.09 30.89Q142.95 32.08 141.23 32.73Q139.51 33.38 137.27 33.38ZM152.34 33L147.22 33L147.22 13.89L152.17 13.89L152.17 17.23L152.38 17.23Q152.91 15.45 154.15 14.54Q155.39 13.64 156.99 13.64L156.99 13.64Q157.38 13.64 157.84 13.68Q158.29 13.72 158.65 13.81L158.65 13.81L158.65 18.39Q158.31 18.27 157.66 18.20Q157.01 18.13 156.43 18.13L156.43 18.13Q155.27 18.13 154.33 18.64Q153.39 19.14 152.86 20.04Q152.34 20.93 152.34 22.13L152.34 22.13L152.34 33ZM167.82 33.38L167.82 33.38Q164.90 33.38 162.78 32.18Q160.66 30.98 159.53 28.78Q158.39 26.57 158.39 23.55L158.39 23.55Q158.39 20.59 159.52 18.37Q160.65 16.15 162.71 14.90Q164.78 13.65 167.57 13.65L167.57 13.65Q169.45 13.65 171.07 14.25Q172.70 14.85 173.93 16.06Q175.16 17.26 175.85 19.07Q176.54 20.88 176.54 23.34L176.54 23.34L176.54 24.78L160.49 24.78L160.49 21.57L174.03 21.57L171.64 22.42Q171.64 20.93 171.18 19.83Q170.73 18.73 169.83 18.12Q168.94 17.52 167.60 17.52L167.60 17.52Q166.29 17.52 165.35 18.13Q164.42 18.75 163.95 19.80Q163.47 20.85 163.47 22.20L163.47 22.20L163.47 24.47Q163.47 26.13 164.02 27.26Q164.58 28.39 165.58 28.95Q166.58 29.51 167.91 29.51L167.91 29.51Q168.82 29.51 169.55 29.26Q170.29 29.00 170.81 28.50Q171.33 27.99 171.60 27.26L171.60 27.26L176.25 28.13Q175.79 29.70 174.64 30.89Q173.50 32.08 171.78 32.73Q170.06 33.38 167.82 33.38Z"/></g>
        
      </svg>
    